<svg xmlns="http://www.w3.org/2000/svg" viewBox="0 0 96 96" role="img" aria-label="赛博看相 logo">
  <defs>
    <linearGradient id="seal" x1="14" y1="10" x2="82" y2="86" gradientUnits="userSpaceOnUse">
      <stop offset="0" stop-color="#f0c08a"/>
      <stop offset="0.52" stop-color="#cc905c"/>
      <stop offset="1" stop-color="#8f4f25"/>
    </linearGradient>
    <linearGradient id="ink" x1="24" y1="20" x2="74" y2="78" gradientUnits="userSpaceOnUse">
      <stop offset="0" stop-color="#3b2a1e"/>
      <stop offset="1" stop-color="#17110d"/>
    </linearGradient>
    <filter id="glow" x="-20%" y="-20%" width="140%" height="140%">
      <feDropShadow dx="0" dy="0" stdDeviation="4" flood-color="#cc905c" flood-opacity="0.32"/>
    </filter>
  </defs>
  <rect width="96" height="96" rx="22" fill="#201913"/>
  <rect x="10" y="10" width="76" height="76" rx="18" fill="url(#seal)" filter="url(#glow)"/>
  <rect x="16" y="16" width="64" height="64" rx="14" fill="url(#ink)"/>
  <path d="M23 48c6.7-12 15-18 25-18s18.3 6 25 18c-6.7 12-15 18-25 18s-18.3-6-25-18Z" fill="none" stroke="#f7f4ee" stroke-width="4.2" stroke-linecap="round" stroke-linejoin="round"/>
  <circle cx="48" cy="48" r="10" fill="#cc905c"/>
  <circle cx="48" cy="48" r="4.2" fill="#201913"/>
  <path d="M48 21v9M48 66v9M21 48h9M66 48h9" stroke="#cc905c" stroke-width="4" stroke-linecap="round"/>
  <path d="M31 30h-8v9M65 30h8v9M31 66h-8v-9M65 66h8v-9" fill="none" stroke="#cc905c" stroke-width="3.4" stroke-linecap="round" stroke-linejoin="round"/>
</svg>
